<svg xmlns="http://www.w3.org/2000/svg" xmlns:xlink="http://www.w3.org/1999/xlink" width="771" zoomAndPan="magnify" viewBox="0 0 578.25 311.25" height="415" preserveAspectRatio="xMidYMid meet" version="1.0"><defs><g/><clipPath id="bf2d325e2f"><rect x="0" width="445" y="0" height="100"/></clipPath><clipPath id="1d5b711d0f"><path d="M 48 50 L 535 50 L 535 310.5 L 48 310.5 Z M 48 50 " clip-rule="nonzero"/></clipPath><clipPath id="7b7c55df9d"><rect x="0" width="487" y="0" height="261"/></clipPath></defs><g transform="matrix(1, 0, 0, 1, 67, 0.000000000000026117)"><g clip-path="url(#bf2d325e2f)"><g fill="#ff6b1a" fill-opacity="1"><g transform="translate(1.258817, 66.98317)"><g><path d="M 46 -39.984375 C 46.957031 -43.441406 48.300781 -46.050781 50.03125 -47.8125 C 51.757812 -49.570312 54.15625 -50.453125 57.21875 -50.453125 C 59.632812 -50.453125 61.566406 -49.6875 63.015625 -48.15625 C 64.472656 -46.625 65.203125 -44.726562 65.203125 -42.46875 C 65.203125 -41.71875 65.078125 -40.835938 64.828125 -39.828125 C 64.273438 -37.617188 63.296875 -36.023438 61.890625 -35.046875 C 60.484375 -34.066406 58.953125 -33.578125 57.296875 -33.578125 C 56.441406 -33.578125 55.675781 -33.640625 55 -33.765625 C 54.320312 -33.890625 53.679688 -34.054688 53.078125 -34.265625 L 48.640625 -17.921875 C 47.035156 -11.941406 44.347656 -7.382812 40.578125 -4.25 C 36.816406 -1.113281 31.695312 0.453125 25.21875 0.453125 C 19.300781 0.453125 14.695312 -0.675781 11.40625 -2.9375 C 8.113281 -5.195312 6.46875 -8.710938 6.46875 -13.484375 C 6.46875 -15.785156 6.875 -18.316406 7.6875 -21.078125 L 13.40625 -41.34375 C 13.601562 -41.988281 13.703125 -42.613281 13.703125 -43.21875 C 13.703125 -43.820312 13.613281 -44.3125 13.4375 -44.6875 C 13.257812 -45.0625 13.019531 -45.5 12.71875 -46 C 12.269531 -46.65625 12.046875 -47.1875 12.046875 -47.59375 C 12.046875 -47.789062 12.097656 -48.039062 12.203125 -48.34375 C 12.398438 -48.988281 12.847656 -49.445312 13.546875 -49.71875 C 14.253906 -50 15.285156 -50.140625 16.640625 -50.140625 L 34.328125 -50.140625 C 36.492188 -50.140625 37.578125 -49.488281 37.578125 -48.1875 C 37.578125 -47.882812 37.550781 -47.632812 37.5 -47.4375 C 37.34375 -46.988281 37.125 -46.625 36.84375 -46.34375 C 36.570312 -46.070312 36.160156 -45.757812 35.609375 -45.40625 C 34.804688 -44.945312 34.15625 -44.441406 33.65625 -43.890625 C 33.15625 -43.335938 32.726562 -42.488281 32.375 -41.34375 L 25.828125 -18.296875 C 25.378906 -16.585938 25.15625 -15.132812 25.15625 -13.9375 C 25.15625 -10.570312 26.960938 -8.890625 30.578125 -8.890625 C 32.785156 -8.890625 34.628906 -9.601562 36.109375 -11.03125 C 37.585938 -12.457031 38.828125 -14.90625 39.828125 -18.375 Z M 46 -39.984375 "/></g></g></g><g fill="#ff6b1a" fill-opacity="1"><g transform="translate(60.592336, 66.98317)"><g><path d="M 58.65625 -50.140625 C 60.71875 -50.140625 61.75 -49.488281 61.75 -48.1875 C 61.75 -47.832031 61.722656 -47.582031 61.671875 -47.4375 C 61.515625 -46.9375 61.285156 -46.546875 60.984375 -46.265625 C 60.679688 -45.992188 60.253906 -45.679688 59.703125 -45.328125 C 58.953125 -44.878906 58.328125 -44.378906 57.828125 -43.828125 C 57.328125 -43.273438 56.898438 -42.421875 56.546875 -41.265625 L 47.21875 -7.828125 C 46.363281 -4.816406 45.296875 -2.707031 44.015625 -1.5 C 42.734375 -0.300781 40.960938 0.296875 38.703125 0.296875 C 36.691406 0.296875 35.019531 -0.289062 33.6875 -1.46875 C 32.363281 -2.644531 31.125 -4.460938 29.96875 -6.921875 L 18.59375 -30.875 L 12.265625 -8.890625 C 12.117188 -8.234375 12.046875 -7.65625 12.046875 -7.15625 C 12.046875 -6.5 12.15625 -5.957031 12.375 -5.53125 C 12.601562 -5.101562 12.921875 -4.664062 13.328125 -4.21875 C 13.878906 -3.5625 14.15625 -3.007812 14.15625 -2.5625 C 14.15625 -2.257812 14.128906 -2.03125 14.078125 -1.875 C 13.878906 -1.175781 13.425781 -0.6875 12.71875 -0.40625 C 12.019531 -0.132812 10.96875 0 9.5625 0 L 1.359375 0 C -0.699219 0 -1.734375 -0.648438 -1.734375 -1.953125 C -1.734375 -2.304688 -1.707031 -2.554688 -1.65625 -2.703125 C -1.507812 -3.210938 -1.285156 -3.601562 -0.984375 -3.875 C -0.679688 -4.15625 -0.253906 -4.46875 0.296875 -4.8125 C 1.054688 -5.269531 1.6875 -5.773438 2.1875 -6.328125 C 2.6875 -6.878906 3.113281 -7.734375 3.46875 -8.890625 L 13.03125 -42.6875 L 11.828125 -45.171875 C 11.316406 -46.179688 11.0625 -47.0625 11.0625 -47.8125 C 11.0625 -49.363281 12.066406 -50.140625 14.078125 -50.140625 L 25.21875 -50.140625 C 26.832031 -50.140625 28.050781 -49.773438 28.875 -49.046875 C 29.707031 -48.328125 30.597656 -47.035156 31.546875 -45.171875 L 42.546875 -23.109375 L 47.734375 -41.265625 C 47.890625 -41.960938 47.96875 -42.539062 47.96875 -43 C 47.96875 -43.644531 47.851562 -44.179688 47.625 -44.609375 C 47.394531 -45.035156 47.082031 -45.476562 46.6875 -45.9375 C 46.132812 -46.582031 45.859375 -47.132812 45.859375 -47.59375 C 45.859375 -47.894531 45.882812 -48.117188 45.9375 -48.265625 C 46.132812 -48.960938 46.582031 -49.445312 47.28125 -49.71875 C 47.988281 -50 49.046875 -50.140625 50.453125 -50.140625 Z M 58.65625 -50.140625 "/></g></g></g><g fill="#ff6b1a" fill-opacity="1"><g transform="translate(115.332772, 66.98317)"><g><path d="M 46 -8.890625 C 45.800781 -8.234375 45.703125 -7.578125 45.703125 -6.921875 C 45.703125 -6.367188 45.773438 -5.90625 45.921875 -5.53125 C 46.078125 -5.15625 46.242188 -4.851562 46.421875 -4.625 C 46.597656 -4.40625 46.710938 -4.242188 46.765625 -4.140625 C 47.265625 -3.640625 47.515625 -3.140625 47.515625 -2.640625 C 47.515625 -2.535156 47.460938 -2.28125 47.359375 -1.875 C 47.160156 -1.175781 46.722656 -0.6875 46.046875 -0.40625 C 45.367188 -0.132812 44.328125 0 42.921875 0 L 25.078125 0 C 24.023438 0 23.207031 -0.171875 22.625 -0.515625 C 22.050781 -0.867188 21.765625 -1.347656 21.765625 -1.953125 C 21.765625 -2.253906 21.835938 -2.582031 21.984375 -2.9375 C 22.140625 -3.332031 22.351562 -3.644531 22.625 -3.875 C 22.90625 -4.101562 23.296875 -4.367188 23.796875 -4.671875 C 24.597656 -5.117188 25.25 -5.617188 25.75 -6.171875 C 26.25 -6.722656 26.675781 -7.628906 27.03125 -8.890625 L 28.984375 -15.359375 L 17.25 -15.359375 L 15.203125 -11.0625 C 14.359375 -9.207031 13.9375 -7.753906 13.9375 -6.703125 C 13.9375 -6.097656 14.035156 -5.609375 14.234375 -5.234375 C 14.429688 -4.859375 14.734375 -4.46875 15.140625 -4.0625 C 15.484375 -3.664062 15.71875 -3.328125 15.84375 -3.046875 C 15.96875 -2.773438 15.984375 -2.410156 15.890625 -1.953125 C 15.691406 -1.203125 15.273438 -0.6875 14.640625 -0.40625 C 14.015625 -0.132812 13.023438 0 11.671875 0 L 0.453125 0 C -0.699219 0 -1.582031 -0.210938 -2.1875 -0.640625 C -2.789062 -1.066406 -3.09375 -1.628906 -3.09375 -2.328125 C -3.09375 -3.128906 -2.800781 -3.769531 -2.21875 -4.25 C -1.644531 -4.726562 -0.777344 -5.242188 0.375 -5.796875 C 1.882812 -6.546875 3.085938 -7.285156 3.984375 -8.015625 C 4.890625 -8.742188 5.671875 -9.757812 6.328125 -11.0625 L 19.734375 -38.859375 C 21.785156 -43.171875 24.203125 -46.289062 26.984375 -48.21875 C 29.773438 -50.15625 33.457031 -51.125 38.03125 -51.125 C 43.144531 -51.125 47.109375 -50.082031 49.921875 -48 C 52.734375 -45.914062 54.140625 -43.019531 54.140625 -39.3125 C 54.140625 -37.75 53.890625 -36.140625 53.390625 -34.484375 Z M 31.25 -22.890625 L 35.234375 -36.140625 C 35.441406 -36.742188 35.546875 -37.375 35.546875 -38.03125 C 35.546875 -38.976562 35.28125 -39.691406 34.75 -40.171875 C 34.21875 -40.648438 33.476562 -40.890625 32.53125 -40.890625 C 31.320312 -40.890625 30.289062 -40.535156 29.4375 -39.828125 C 28.582031 -39.128906 27.726562 -37.875 26.875 -36.0625 L 20.703125 -22.890625 Z M 31.25 -22.890625 "/></g></g></g><g fill="#ff6b1a" fill-opacity="1"><g transform="translate(167.889621, 66.98317)"><g/></g></g><g fill="#ff6b1a" fill-opacity="1"><g transform="translate(182.948902, 66.98317)"><g><path d="M 80.875 -50.140625 C 81.925781 -50.140625 82.738281 -49.976562 83.3125 -49.65625 C 83.894531 -49.332031 84.1875 -48.867188 84.1875 -48.265625 C 84.1875 -48.015625 84.109375 -47.6875 83.953125 -47.28125 C 83.804688 -46.832031 83.59375 -46.492188 83.3125 -46.265625 C 83.039062 -46.046875 82.628906 -45.757812 82.078125 -45.40625 C 81.273438 -44.945312 80.632812 -44.441406 80.15625 -43.890625 C 79.675781 -43.335938 79.257812 -42.488281 78.90625 -41.34375 L 69.71875 -8.953125 C 69.519531 -8.304688 69.421875 -7.679688 69.421875 -7.078125 C 69.421875 -6.523438 69.507812 -6.0625 69.6875 -5.6875 C 69.863281 -5.3125 70.101562 -4.875 70.40625 -4.375 C 70.601562 -4.113281 70.773438 -3.84375 70.921875 -3.5625 C 71.078125 -3.289062 71.15625 -3.003906 71.15625 -2.703125 C 71.15625 -2.609375 71.101562 -2.359375 71 -1.953125 C 70.800781 -1.304688 70.335938 -0.832031 69.609375 -0.53125 C 68.878906 -0.226562 67.835938 -0.078125 66.484375 -0.078125 L 48.796875 -0.078125 C 47.742188 -0.078125 46.925781 -0.25 46.34375 -0.59375 C 45.769531 -0.945312 45.484375 -1.425781 45.484375 -2.03125 C 45.484375 -2.332031 45.554688 -2.660156 45.703125 -3.015625 C 45.859375 -3.359375 46.070312 -3.671875 46.34375 -3.953125 C 46.625 -4.234375 46.875 -4.4375 47.09375 -4.5625 C 47.320312 -4.6875 47.488281 -4.796875 47.59375 -4.890625 C 48.394531 -5.347656 49.046875 -5.851562 49.546875 -6.40625 C 50.046875 -6.957031 50.472656 -7.804688 50.828125 -8.953125 L 56.546875 -29.296875 L 37.046875 -5.125 C 35.441406 -3.164062 34.148438 -1.820312 33.171875 -1.09375 C 32.191406 -0.363281 31.070312 0 29.8125 0 C 28.613281 0 27.675781 -0.382812 27 -1.15625 C 26.320312 -1.9375 25.707031 -3.257812 25.15625 -5.125 L 18.078125 -28.390625 L 12.5 -8.890625 C 12.300781 -8.234375 12.203125 -7.601562 12.203125 -7 C 12.203125 -6.394531 12.285156 -5.890625 12.453125 -5.484375 C 12.628906 -5.085938 12.894531 -4.664062 13.25 -4.21875 C 13.707031 -3.5625 13.9375 -3.035156 13.9375 -2.640625 C 13.9375 -2.535156 13.882812 -2.28125 13.78125 -1.875 C 13.582031 -1.175781 13.128906 -0.6875 12.421875 -0.40625 C 11.722656 -0.132812 10.671875 0 9.265625 0 L 3.015625 0 C 1.960938 0 1.144531 -0.171875 0.5625 -0.515625 C -0.0078125 -0.867188 -0.296875 -1.347656 -0.296875 -1.953125 C -0.296875 -2.253906 -0.222656 -2.582031 -0.078125 -2.9375 C 0.117188 -3.488281 0.441406 -3.914062 0.890625 -4.21875 C 1.347656 -4.519531 1.628906 -4.695312 1.734375 -4.75 C 2.535156 -5.25 3.1875 -5.757812 3.6875 -6.28125 C 4.1875 -6.8125 4.613281 -7.679688 4.96875 -8.890625 L 14.15625 -41.40625 L 12.953125 -45.40625 C 12.703125 -46.15625 12.578125 -46.882812 12.578125 -47.59375 C 12.578125 -48.488281 12.863281 -49.132812 13.4375 -49.53125 C 14.019531 -49.9375 14.910156 -50.140625 16.109375 -50.140625 L 27.78125 -50.140625 C 29.289062 -50.140625 30.410156 -49.8125 31.140625 -49.15625 C 31.867188 -48.507812 32.457031 -47.382812 32.90625 -45.78125 L 40.4375 -20.78125 L 60.84375 -46.15625 C 62.144531 -47.757812 63.421875 -48.820312 64.671875 -49.34375 C 65.929688 -49.875 67.59375 -50.140625 69.65625 -50.140625 Z M 80.875 -50.140625 "/></g></g></g><g fill="#ff6b1a" fill-opacity="1"><g transform="translate(260.880616, 66.98317)"><g><path d="M 33.4375 -50.140625 C 34.488281 -50.140625 35.300781 -49.976562 35.875 -49.65625 C 36.457031 -49.332031 36.75 -48.867188 36.75 -48.265625 C 36.75 -48.015625 36.671875 -47.6875 36.515625 -47.28125 C 36.367188 -46.9375 36.15625 -46.625 35.875 -46.34375 C 35.601562 -46.070312 35.351562 -45.867188 35.125 -45.734375 C 34.894531 -45.609375 34.734375 -45.5 34.640625 -45.40625 C 33.835938 -44.945312 33.179688 -44.441406 32.671875 -43.890625 C 32.171875 -43.335938 31.75 -42.488281 31.40625 -41.34375 L 22.28125 -8.890625 C 22.082031 -8.234375 21.984375 -7.601562 21.984375 -7 C 21.984375 -6.394531 22.070312 -5.890625 22.25 -5.484375 C 22.425781 -5.085938 22.691406 -4.664062 23.046875 -4.21875 C 23.492188 -3.5625 23.71875 -3.035156 23.71875 -2.640625 C 23.71875 -2.535156 23.664062 -2.28125 23.5625 -1.875 C 23.363281 -1.175781 22.910156 -0.6875 22.203125 -0.40625 C 21.503906 -0.132812 20.453125 0 19.046875 0 L 1.359375 0 C 0.304688 0 -0.503906 -0.171875 -1.078125 -0.515625 C -1.660156 -0.867188 -1.953125 -1.347656 -1.953125 -1.953125 C -1.953125 -2.253906 -1.878906 -2.582031 -1.734375 -2.9375 C -1.535156 -3.488281 -1.207031 -3.914062 -0.75 -4.21875 C -0.300781 -4.519531 -0.0234375 -4.695312 0.078125 -4.75 C 0.878906 -5.25 1.53125 -5.757812 2.03125 -6.28125 C 2.53125 -6.8125 2.957031 -7.679688 3.3125 -8.890625 L 12.5 -41.34375 C 12.695312 -41.988281 12.796875 -42.613281 12.796875 -43.21875 C 12.796875 -43.769531 12.707031 -44.234375 12.53125 -44.609375 C 12.351562 -44.984375 12.117188 -45.425781 11.828125 -45.9375 C 11.367188 -46.582031 11.140625 -47.109375 11.140625 -47.515625 C 11.140625 -47.660156 11.191406 -47.9375 11.296875 -48.34375 C 11.492188 -48.988281 11.929688 -49.445312 12.609375 -49.71875 C 13.285156 -50 14.328125 -50.140625 15.734375 -50.140625 Z M 33.4375 -50.140625 "/></g></g></g><g fill="#ff6b1a" fill-opacity="1"><g transform="translate(291.300343, 66.98317)"><g><path d="M 43.140625 -19.421875 C 44.546875 -19.421875 45.613281 -19.128906 46.34375 -18.546875 C 47.070312 -17.972656 47.4375 -17.160156 47.4375 -16.109375 C 47.4375 -15.660156 47.363281 -15.160156 47.21875 -14.609375 L 44.71875 -5.796875 C 44.070312 -3.640625 43.15625 -2.132812 41.96875 -1.28125 C 40.789062 -0.425781 39.050781 0 36.75 0 L 1.359375 0 C 0.304688 0 -0.503906 -0.171875 -1.078125 -0.515625 C -1.660156 -0.867188 -1.953125 -1.347656 -1.953125 -1.953125 C -1.953125 -2.253906 -1.878906 -2.582031 -1.734375 -2.9375 C -1.578125 -3.332031 -1.320312 -3.671875 -0.96875 -3.953125 C -0.625 -4.234375 -0.246094 -4.5 0.15625 -4.75 C 0.957031 -5.25 1.609375 -5.757812 2.109375 -6.28125 C 2.609375 -6.8125 3.035156 -7.679688 3.390625 -8.890625 L 12.578125 -41.34375 C 12.773438 -41.988281 12.875 -42.613281 12.875 -43.21875 C 12.875 -43.769531 12.785156 -44.234375 12.609375 -44.609375 C 12.429688 -44.984375 12.191406 -45.425781 11.890625 -45.9375 C 11.441406 -46.582031 11.21875 -47.109375 11.21875 -47.515625 C 11.21875 -47.660156 11.269531 -47.9375 11.375 -48.34375 C 11.570312 -48.988281 12.007812 -49.445312 12.6875 -49.71875 C 13.363281 -50 14.40625 -50.140625 15.8125 -50.140625 L 33.5 -50.140625 C 34.5625 -50.140625 35.378906 -49.976562 35.953125 -49.65625 C 36.523438 -49.332031 36.8125 -48.867188 36.8125 -48.265625 C 36.8125 -48.015625 36.738281 -47.6875 36.59375 -47.28125 C 36.445312 -46.9375 36.234375 -46.625 35.953125 -46.34375 C 35.679688 -46.070312 35.429688 -45.867188 35.203125 -45.734375 C 34.972656 -45.609375 34.8125 -45.5 34.71875 -45.40625 C 33.90625 -44.945312 33.25 -44.441406 32.75 -43.890625 C 32.25 -43.335938 31.820312 -42.488281 31.46875 -41.34375 L 21.765625 -7.234375 L 26.421875 -7.234375 C 27.578125 -7.234375 28.566406 -7.429688 29.390625 -7.828125 C 30.222656 -8.234375 31.09375 -8.988281 32 -10.09375 L 37.203125 -16.265625 C 38.148438 -17.367188 39.0625 -18.171875 39.9375 -18.671875 C 40.820312 -19.171875 41.890625 -19.421875 43.140625 -19.421875 Z M 43.140625 -19.421875 "/></g></g></g><g fill="#ff6b1a" fill-opacity="1"><g transform="translate(340.318261, 66.98317)"><g><path d="M 43.140625 -19.421875 C 44.546875 -19.421875 45.613281 -19.128906 46.34375 -18.546875 C 47.070312 -17.972656 47.4375 -17.160156 47.4375 -16.109375 C 47.4375 -15.660156 47.363281 -15.160156 47.21875 -14.609375 L 44.71875 -5.796875 C 44.070312 -3.640625 43.15625 -2.132812 41.96875 -1.28125 C 40.789062 -0.425781 39.050781 0 36.75 0 L 1.359375 0 C 0.304688 0 -0.503906 -0.171875 -1.078125 -0.515625 C -1.660156 -0.867188 -1.953125 -1.347656 -1.953125 -1.953125 C -1.953125 -2.253906 -1.878906 -2.582031 -1.734375 -2.9375 C -1.578125 -3.332031 -1.320312 -3.671875 -0.96875 -3.953125 C -0.625 -4.234375 -0.246094 -4.5 0.15625 -4.75 C 0.957031 -5.25 1.609375 -5.757812 2.109375 -6.28125 C 2.609375 -6.8125 3.035156 -7.679688 3.390625 -8.890625 L 12.578125 -41.34375 C 12.773438 -41.988281 12.875 -42.613281 12.875 -43.21875 C 12.875 -43.769531 12.785156 -44.234375 12.609375 -44.609375 C 12.429688 -44.984375 12.191406 -45.425781 11.890625 -45.9375 C 11.441406 -46.582031 11.21875 -47.109375 11.21875 -47.515625 C 11.21875 -47.660156 11.269531 -47.9375 11.375 -48.34375 C 11.570312 -48.988281 12.007812 -49.445312 12.6875 -49.71875 C 13.363281 -50 14.40625 -50.140625 15.8125 -50.140625 L 33.5 -50.140625 C 34.5625 -50.140625 35.378906 -49.976562 35.953125 -49.65625 C 36.523438 -49.332031 36.8125 -48.867188 36.8125 -48.265625 C 36.8125 -48.015625 36.738281 -47.6875 36.59375 -47.28125 C 36.445312 -46.9375 36.234375 -46.625 35.953125 -46.34375 C 35.679688 -46.070312 35.429688 -45.867188 35.203125 -45.734375 C 34.972656 -45.609375 34.8125 -45.5 34.71875 -45.40625 C 33.90625 -44.945312 33.25 -44.441406 32.75 -43.890625 C 32.25 -43.335938 31.820312 -42.488281 31.46875 -41.34375 L 21.765625 -7.234375 L 26.421875 -7.234375 C 27.578125 -7.234375 28.566406 -7.429688 29.390625 -7.828125 C 30.222656 -8.234375 31.09375 -8.988281 32 -10.09375 L 37.203125 -16.265625 C 38.148438 -17.367188 39.0625 -18.171875 39.9375 -18.671875 C 40.820312 -19.171875 41.890625 -19.421875 43.140625 -19.421875 Z M 43.140625 -19.421875 "/></g></g></g><g fill="#ff6b1a" fill-opacity="1"><g transform="translate(389.336201, 66.98317)"><g><path d="M 46 -8.890625 C 45.800781 -8.234375 45.703125 -7.578125 45.703125 -6.921875 C 45.703125 -6.367188 45.773438 -5.90625 45.921875 -5.53125 C 46.078125 -5.15625 46.242188 -4.851562 46.421875 -4.625 C 46.597656 -4.40625 46.710938 -4.242188 46.765625 -4.140625 C 47.265625 -3.640625 47.515625 -3.140625 47.515625 -2.640625 C 47.515625 -2.535156 47.460938 -2.28125 47.359375 -1.875 C 47.160156 -1.175781 46.722656 -0.6875 46.046875 -0.40625 C 45.367188 -0.132812 44.328125 0 42.921875 0 L 25.078125 0 C 24.023438 0 23.207031 -0.171875 22.625 -0.515625 C 22.050781 -0.867188 21.765625 -1.347656 21.765625 -1.953125 C 21.765625 -2.253906 21.835938 -2.582031 21.984375 -2.9375 C 22.140625 -3.332031 22.351562 -3.644531 22.625 -3.875 C 22.90625 -4.101562 23.296875 -4.367188 23.796875 -4.671875 C 24.597656 -5.117188 25.25 -5.617188 25.75 -6.171875 C 26.25 -6.722656 26.675781 -7.628906 27.03125 -8.890625 L 28.984375 -15.359375 L 17.25 -15.359375 L 15.203125 -11.0625 C 14.359375 -9.207031 13.9375 -7.753906 13.9375 -6.703125 C 13.9375 -6.097656 14.035156 -5.609375 14.234375 -5.234375 C 14.429688 -4.859375 14.734375 -4.46875 15.140625 -4.0625 C 15.484375 -3.664062 15.71875 -3.328125 15.84375 -3.046875 C 15.96875 -2.773438 15.984375 -2.410156 15.890625 -1.953125 C 15.691406 -1.203125 15.273438 -0.6875 14.640625 -0.40625 C 14.015625 -0.132812 13.023438 0 11.671875 0 L 0.453125 0 C -0.699219 0 -1.582031 -0.210938 -2.1875 -0.640625 C -2.789062 -1.066406 -3.09375 -1.628906 -3.09375 -2.328125 C -3.09375 -3.128906 -2.800781 -3.769531 -2.21875 -4.25 C -1.644531 -4.726562 -0.777344 -5.242188 0.375 -5.796875 C 1.882812 -6.546875 3.085938 -7.285156 3.984375 -8.015625 C 4.890625 -8.742188 5.671875 -9.757812 6.328125 -11.0625 L 19.734375 -38.859375 C 21.785156 -43.171875 24.203125 -46.289062 26.984375 -48.21875 C 29.773438 -50.15625 33.457031 -51.125 38.03125 -51.125 C 43.144531 -51.125 47.109375 -50.082031 49.921875 -48 C 52.734375 -45.914062 54.140625 -43.019531 54.140625 -39.3125 C 54.140625 -37.75 53.890625 -36.140625 53.390625 -34.484375 Z M 31.25 -22.890625 L 35.234375 -36.140625 C 35.441406 -36.742188 35.546875 -37.375 35.546875 -38.03125 C 35.546875 -38.976562 35.28125 -39.691406 34.75 -40.171875 C 34.21875 -40.648438 33.476562 -40.890625 32.53125 -40.890625 C 31.320312 -40.890625 30.289062 -40.535156 29.4375 -39.828125 C 28.582031 -39.128906 27.726562 -37.875 26.875 -36.0625 L 20.703125 -22.890625 Z M 31.25 -22.890625 "/></g></g></g></g></g><g clip-path="url(#1d5b711d0f)"><g transform="matrix(1, 0, 0, 1, 48, 50)"><g clip-path="url(#7b7c55df9d)"><g fill="#f2d680" fill-opacity="1"><g transform="translate(4.089291, 200.403201)"><g><path d="M 209.734375 -130.0625 C 212.460938 -130.0625 214.578125 -129.632812 216.078125 -128.78125 C 217.578125 -127.9375 218.328125 -126.734375 218.328125 -125.171875 C 218.328125 -124.523438 218.128906 -123.679688 217.734375 -122.640625 C 217.347656 -121.460938 216.796875 -120.582031 216.078125 -120 C 215.359375 -119.414062 214.285156 -118.664062 212.859375 -117.75 C 210.773438 -116.582031 209.113281 -115.28125 207.875 -113.84375 C 206.632812 -112.414062 205.5625 -110.203125 204.65625 -107.203125 L 180.828125 -23.234375 C 180.304688 -21.546875 180.046875 -19.921875 180.046875 -18.359375 C 180.046875 -16.921875 180.273438 -15.710938 180.734375 -14.734375 C 181.191406 -13.765625 181.8125 -12.628906 182.59375 -11.328125 C 183.113281 -10.671875 183.566406 -9.984375 183.953125 -9.265625 C 184.347656 -8.554688 184.546875 -7.8125 184.546875 -7.03125 C 184.546875 -6.769531 184.414062 -6.117188 184.15625 -5.078125 C 183.632812 -3.378906 182.425781 -2.140625 180.53125 -1.359375 C 178.644531 -0.578125 175.945312 -0.1875 172.4375 -0.1875 L 126.546875 -0.1875 C 123.804688 -0.1875 121.6875 -0.640625 120.1875 -1.546875 C 118.695312 -2.460938 117.953125 -3.703125 117.953125 -5.265625 C 117.953125 -6.046875 118.144531 -6.894531 118.53125 -7.8125 C 118.925781 -8.71875 119.476562 -9.53125 120.1875 -10.25 C 120.90625 -10.96875 121.554688 -11.488281 122.140625 -11.8125 C 122.734375 -12.132812 123.160156 -12.425781 123.421875 -12.6875 C 125.503906 -13.863281 127.195312 -15.164062 128.5 -16.59375 C 129.800781 -18.03125 130.90625 -20.242188 131.8125 -23.234375 L 146.65625 -75.96875 L 96.078125 -13.28125 C 91.910156 -8.195312 88.554688 -4.710938 86.015625 -2.828125 C 83.484375 -0.941406 80.585938 0 77.328125 0 C 74.203125 0 71.757812 -1.003906 70 -3.015625 C 68.25 -5.035156 66.65625 -8.457031 65.21875 -13.28125 L 46.875 -73.625 L 32.421875 -23.046875 C 31.898438 -21.347656 31.640625 -19.71875 31.640625 -18.15625 C 31.640625 -16.59375 31.863281 -15.289062 32.3125 -14.25 C 32.769531 -13.207031 33.457031 -12.101562 34.375 -10.9375 C 35.539062 -9.238281 36.125 -7.867188 36.125 -6.828125 C 36.125 -6.566406 35.992188 -5.914062 35.734375 -4.875 C 35.210938 -3.050781 34.039062 -1.78125 32.21875 -1.0625 C 30.394531 -0.351562 27.660156 0 24.015625 0 L 7.8125 0 C 5.070312 0 2.953125 -0.453125 1.453125 -1.359375 C -0.0351562 -2.273438 -0.78125 -3.515625 -0.78125 -5.078125 C -0.78125 -5.859375 -0.582031 -6.703125 -0.1875 -7.609375 C 0.320312 -9.046875 1.160156 -10.15625 2.328125 -10.9375 C 3.503906 -11.71875 4.222656 -12.171875 4.484375 -12.296875 C 6.566406 -13.597656 8.257812 -14.929688 9.5625 -16.296875 C 10.863281 -17.671875 11.972656 -19.921875 12.890625 -23.046875 L 36.71875 -107.40625 L 33.59375 -117.75 C 32.9375 -119.707031 32.609375 -121.597656 32.609375 -123.421875 C 32.609375 -125.765625 33.359375 -127.457031 34.859375 -128.5 C 36.359375 -129.539062 38.671875 -130.0625 41.796875 -130.0625 L 72.0625 -130.0625 C 75.96875 -130.0625 78.863281 -129.210938 80.75 -127.515625 C 82.632812 -125.828125 84.164062 -122.898438 85.34375 -118.734375 L 104.859375 -53.890625 L 157.78125 -119.703125 C 161.164062 -123.867188 164.484375 -126.632812 167.734375 -128 C 170.992188 -129.375 175.296875 -130.0625 180.640625 -130.0625 Z M 209.734375 -130.0625 "/></g></g></g><g fill="#f2d680" fill-opacity="1"><g transform="translate(206.208502, 200.403201)"><g><path d="M 119.3125 -23.046875 C 118.789062 -21.347656 118.53125 -19.65625 118.53125 -17.96875 C 118.53125 -16.53125 118.722656 -15.320312 119.109375 -14.34375 C 119.503906 -13.375 119.929688 -12.59375 120.390625 -12 C 120.847656 -11.414062 121.140625 -10.992188 121.265625 -10.734375 C 122.566406 -9.429688 123.21875 -8.128906 123.21875 -6.828125 C 123.21875 -6.566406 123.085938 -5.914062 122.828125 -4.875 C 122.304688 -3.050781 121.164062 -1.78125 119.40625 -1.0625 C 117.65625 -0.351562 114.957031 0 111.3125 0 L 65.03125 0 C 62.289062 0 60.171875 -0.453125 58.671875 -1.359375 C 57.179688 -2.273438 56.4375 -3.515625 56.4375 -5.078125 C 56.4375 -5.859375 56.628906 -6.703125 57.015625 -7.609375 C 57.410156 -8.648438 57.960938 -9.460938 58.671875 -10.046875 C 59.390625 -10.640625 60.398438 -11.328125 61.703125 -12.109375 C 63.785156 -13.273438 65.476562 -14.570312 66.78125 -16 C 68.082031 -17.4375 69.191406 -19.785156 70.109375 -23.046875 L 75.1875 -39.84375 L 44.71875 -39.84375 L 39.453125 -28.703125 C 37.234375 -23.890625 36.125 -20.113281 36.125 -17.375 C 36.125 -15.8125 36.382812 -14.539062 36.90625 -13.5625 C 37.425781 -12.59375 38.207031 -11.585938 39.25 -10.546875 C 40.164062 -9.503906 40.785156 -8.625 41.109375 -7.90625 C 41.429688 -7.1875 41.460938 -6.242188 41.203125 -5.078125 C 40.679688 -3.117188 39.609375 -1.78125 37.984375 -1.0625 C 36.359375 -0.351562 33.785156 0 30.265625 0 L 1.171875 0 C -1.816406 0 -4.09375 -0.550781 -5.65625 -1.65625 C -7.21875 -2.757812 -8 -4.222656 -8 -6.046875 C -8 -8.128906 -7.25 -9.789062 -5.75 -11.03125 C -4.257812 -12.269531 -2.019531 -13.601562 0.96875 -15.03125 C 4.875 -16.988281 8 -18.910156 10.34375 -20.796875 C 12.6875 -22.679688 14.707031 -25.316406 16.40625 -28.703125 L 51.15625 -100.765625 C 56.5 -111.960938 62.78125 -120.066406 70 -125.078125 C 77.226562 -130.085938 86.765625 -132.59375 98.609375 -132.59375 C 111.890625 -132.59375 122.175781 -129.890625 129.46875 -124.484375 C 136.757812 -119.085938 140.40625 -111.570312 140.40625 -101.9375 C 140.40625 -97.90625 139.753906 -93.738281 138.453125 -89.4375 Z M 81.046875 -59.359375 L 91.390625 -93.734375 C 91.910156 -95.296875 92.171875 -96.921875 92.171875 -98.609375 C 92.171875 -101.085938 91.488281 -102.941406 90.125 -104.171875 C 88.757812 -105.410156 86.835938 -106.03125 84.359375 -106.03125 C 81.234375 -106.03125 78.5625 -105.117188 76.34375 -103.296875 C 74.132812 -101.472656 71.925781 -98.222656 69.71875 -93.546875 L 53.703125 -59.359375 Z M 114.4375 -162.46875 C 117.5625 -167.9375 120.78125 -171.90625 124.09375 -174.375 C 127.414062 -176.851562 131.421875 -178.09375 136.109375 -178.09375 C 140.140625 -178.09375 143.328125 -177.019531 145.671875 -174.875 C 148.015625 -172.726562 149.1875 -169.832031 149.1875 -166.1875 C 149.1875 -162.28125 147.882812 -158.894531 145.28125 -156.03125 C 142.675781 -153.164062 138.445312 -150.300781 132.59375 -147.4375 L 115.609375 -139.234375 C 113.128906 -138.191406 111.046875 -137.671875 109.359375 -137.671875 C 107.796875 -137.671875 106.523438 -138.0625 105.546875 -138.84375 C 104.566406 -139.625 104.078125 -140.796875 104.078125 -142.359375 C 104.078125 -144.046875 104.726562 -146 106.03125 -148.21875 Z M 114.4375 -162.46875 "/></g></g></g><g fill="#f2d680" fill-opacity="1"><g transform="translate(342.516916, 200.403201)"><g><path d="M 73.03125 -131.234375 C 80.320312 -131.234375 87.054688 -130.351562 93.234375 -128.59375 C 99.421875 -126.832031 105.707031 -124.066406 112.09375 -120.296875 L 116.578125 -124 C 119.703125 -126.476562 122.273438 -128.171875 124.296875 -129.078125 C 126.316406 -129.992188 128.628906 -130.453125 131.234375 -130.453125 C 134.359375 -130.453125 136.832031 -129.765625 138.65625 -128.390625 C 140.476562 -127.023438 141.390625 -125.039062 141.390625 -122.4375 C 141.390625 -121.394531 141.191406 -120.289062 140.796875 -119.125 L 132.59375 -92.171875 C 131.6875 -89.046875 130.546875 -86.832031 129.171875 -85.53125 C 127.804688 -84.226562 125.757812 -83.578125 123.03125 -83.578125 C 120.164062 -83.578125 117.65625 -84.457031 115.5 -86.21875 C 113.351562 -87.976562 110.003906 -91.59375 105.453125 -97.0625 C 100.890625 -102.257812 96.753906 -105.929688 93.046875 -108.078125 C 89.335938 -110.234375 85.53125 -111.3125 81.625 -111.3125 C 78.757812 -111.3125 76.347656 -110.363281 74.390625 -108.46875 C 72.441406 -106.582031 71.46875 -104.273438 71.46875 -101.546875 C 71.46875 -98.421875 73.03125 -95.523438 76.15625 -92.859375 C 79.28125 -90.191406 84.164062 -86.835938 90.8125 -82.796875 C 97.570312 -78.765625 103.164062 -75.117188 107.59375 -71.859375 C 112.019531 -68.609375 115.796875 -64.570312 118.921875 -59.75 C 122.046875 -54.9375 123.609375 -49.40625 123.609375 -43.15625 C 123.609375 -39.125 122.957031 -35.085938 121.65625 -31.046875 C 118.53125 -20.628906 112.476562 -12.71875 103.5 -7.3125 C 94.519531 -1.914062 84.039062 0.78125 72.0625 0.78125 C 63.070312 0.78125 55.519531 -0.257812 49.40625 -2.34375 C 43.289062 -4.425781 37.039062 -7.941406 30.65625 -12.890625 L 23.625 -7.03125 C 20.375 -4.289062 17.707031 -2.429688 15.625 -1.453125 C 13.539062 -0.484375 11.195312 0 8.59375 0 C 5.59375 0 3.210938 -0.710938 1.453125 -2.140625 C -0.292969 -3.578125 -1.171875 -5.53125 -1.171875 -8 C -1.171875 -9.300781 -0.910156 -10.671875 -0.390625 -12.109375 L 9.171875 -41.203125 C 10.210938 -44.585938 11.644531 -46.992188 13.46875 -48.421875 C 15.289062 -49.859375 17.632812 -50.578125 20.5 -50.578125 C 23.5 -50.578125 26.203125 -49.535156 28.609375 -47.453125 C 31.015625 -45.367188 34.171875 -41.59375 38.078125 -36.125 C 42.242188 -30.132812 46.113281 -25.96875 49.6875 -23.625 C 53.269531 -21.28125 57.535156 -20.109375 62.484375 -20.109375 C 66.003906 -20.109375 68.707031 -20.660156 70.59375 -21.765625 C 72.476562 -22.878906 73.8125 -24.671875 74.59375 -27.140625 C 74.851562 -27.796875 74.984375 -28.773438 74.984375 -30.078125 C 74.984375 -33.203125 73.484375 -36.066406 70.484375 -38.671875 C 67.492188 -41.273438 62.875 -44.398438 56.625 -48.046875 C 49.988281 -52.078125 44.585938 -55.6875 40.421875 -58.875 C 36.253906 -62.0625 32.640625 -66.0625 29.578125 -70.875 C 26.523438 -75.695312 25 -81.363281 25 -87.875 C 25 -92.4375 25.710938 -96.925781 27.140625 -101.34375 C 29.878906 -110.332031 35.476562 -117.5625 43.9375 -123.03125 C 52.394531 -128.5 62.09375 -131.234375 73.03125 -131.234375 Z M 73.03125 -131.234375 "/></g></g></g></g></g></g></svg>